<?xml version="1.0" standalone="no"?>
<!DOCTYPE svg PUBLIC "-//W3C//DTD SVG 20010904//EN"
 "http://www.w3.org/TR/2001/REC-SVG-20010904/DTD/svg10.dtd">
<svg version="1.0" xmlns="http://www.w3.org/2000/svg"
 width="1024.000000pt" height="1024.000000pt" viewBox="0 0 1024.000000 1024.000000"
 preserveAspectRatio="xMidYMid meet">
<metadata>
Created by potrace 1.16, written by Peter Selinger 2001-2019
</metadata>
<g transform="translate(0.000000,1024.000000) scale(0.100000,-0.100000)"
fill="#000000" stroke="none">
<path d="M4885 8760 c-544 -45 -948 -154 -1410 -380 -476 -233 -830 -493
-1159 -849 -524 -568 -840 -1216 -952 -1951 -24 -156 -28 -209 -30 -485 -3
-262 0 -332 16 -455 65 -489 160 -810 355 -1200 275 -551 716 -1063 1223
-1417 378 -264 891 -500 1314 -603 295 -72 572 -105 883 -103 591 2 1107 129
1659 407 394 199 714 433 1016 742 155 159 217 231 347 404 327 437 543 914
648 1435 155 766 83 1484 -219 2185 -297 690 -848 1319 -1500 1713 -336 203
-710 363 -1045 447 -349 88 -840 135 -1146 110z m605 -695 c437 -67 907 -260
1280 -528 251 -180 603 -528 676 -669 15 -29 15 -32 -3 -57 -10 -14 -55 -44
-98 -67 -89 -45 -373 -164 -453 -190 -46 -15 -52 -20 -50 -41 3 -21 -15 -37
-119 -108 -80 -55 -123 -79 -123 -69 0 8 -9 36 -21 61 -17 37 -24 44 -42 40
-12 -3 -78 -19 -147 -37 -246 -62 -608 -113 -943 -132 l-207 -12 2 -330 3
-331 95 -7 c114 -9 282 -33 404 -58 l88 -18 92 82 c50 46 126 109 169 140 l79
58 -40 -74 c-46 -83 -111 -235 -138 -321 l-19 -59 -40 5 c-22 3 -200 26 -395
51 -195 24 -408 50 -472 57 l-118 13 0 397 0 396 -137 7 c-189 9 -313 22 -553
56 -193 27 -512 90 -568 111 -14 5 -29 6 -33 2 -14 -14 -99 -284 -135 -432
-20 -79 -48 -221 -63 -315 l-26 -171 -134 -23 c-73 -13 -135 -21 -137 -19 -7
6 15 204 36 332 27 158 89 406 145 579 25 77 42 143 38 147 -5 3 -33 14 -63
24 -179 57 -511 208 -551 251 -30 32 -22 55 61 163 192 248 498 515 793 693
124 75 387 202 522 251 200 74 426 131 643 162 129 19 554 13 702 -10z m2075
-1585 c-31 -61 -106 -265 -154 -420 -32 -103 -61 -175 -85 -213 -41 -64 -84
-160 -112 -250 -15 -48 -21 -57 -38 -55 -18 3 -25 18 -43 98 -18 81 -21 119
-18 260 4 181 21 278 90 498 l36 114 51 -71 50 -70 107 66 c58 36 110 69 115
74 17 16 18 1 1 -31z m-5256 -207 c12 -14 24 -36 27 -49 3 -12 -19 -125 -50
-251 -53 -217 -87 -392 -101 -513 l-7 -55 94 -24 c77 -20 153 -44 278 -87 9
-4 -4 -14 -35 -27 -69 -30 -217 -110 -272 -147 -32 -22 -49 -28 -57 -20 -15
12 -26 3 -26 -19 0 -9 -25 -36 -55 -60 -56 -45 -121 -111 -165 -168 l-25 -32
-2 27 c-13 210 -14 397 -4 508 27 289 96 568 201 817 44 103 69 127 131 127
40 0 51 -4 68 -27z m5714 15 c41 -31 132 -266 187 -482 59 -233 95 -528 88
-726 l-3 -95 -53 92 c-187 325 -328 759 -348 1073 -7 96 -6 99 19 124 29 29
81 35 110 14z m-1213 -265 c-6 -21 -14 -103 -17 -183 -8 -218 27 -372 130
-573 49 -98 50 -99 81 -93 73 14 378 56 404 56 27 0 30 4 70 128 60 179 172
385 172 315 0 -63 87 -341 156 -498 107 -244 243 -451 404 -618 l106 -108 -51
6 c-66 9 -237 66 -317 106 -151 76 -301 207 -394 344 -56 83 -57 83 -93 77
-26 -4 -47 -18 -79 -53 -161 -179 -459 -421 -729 -592 -275 -173 -796 -398
-1069 -460 l-60 -13 -65 48 c-35 26 -106 87 -157 135 l-94 86 -51 -51 c-48
-48 -50 -52 -39 -78 41 -88 223 -271 385 -386 114 -81 336 -217 409 -251 26
-12 48 -24 48 -27 0 -11 -210 2 -329 21 -295 46 -560 141 -806 289 l-80 48
-145 -14 c-189 -19 -614 -14 -785 10 -314 44 -627 137 -850 252 -307 157 -578
414 -705 665 l-42 84 38 33 c61 52 222 156 325 210 205 106 416 177 669 227
258 50 371 59 705 58 330 0 447 -9 850 -63 730 -97 919 -116 1252 -126 l241
-7 7 59 c19 167 79 372 147 509 67 134 185 303 277 396 47 49 87 84 89 79 2
-5 -2 -26 -8 -47z m599 -1604 c28 -18 51 -35 51 -40 0 -15 -231 -193 -381
-291 l-156 -103 -7 -45 c-23 -143 -135 -521 -211 -715 -19 -49 -33 -90 -32
-91 6 -6 285 80 417 130 298 110 284 103 368 191 42 44 105 115 139 157 35 43
74 85 88 94 23 15 27 15 50 0 14 -9 25 -26 25 -38 0 -23 -88 -173 -193 -333
-331 -498 -784 -885 -1306 -1115 -405 -178 -935 -275 -1316 -241 -496 45 -921
175 -1300 399 -370 219 -628 450 -906 812 -108 139 -309 450 -309 476 0 6 8
22 18 34 31 38 60 21 149 -87 95 -114 234 -253 255 -253 8 0 81 -27 164 -60
82 -34 214 -81 293 -105 79 -25 147 -48 152 -51 17 -10 9 7 -50 104 -32 53
-72 124 -89 158 l-30 60 106 -27 c59 -15 141 -35 182 -44 l75 -16 39 -72 c90
-167 149 -257 170 -262 203 -43 646 -95 964 -111 l122 -7 0 148 c0 136 1 147
18 140 9 -4 73 -29 142 -55 l125 -47 3 -93 3 -93 127 7 c293 15 671 57 866 94
l89 17 73 145 c40 80 74 150 74 156 0 7 -42 40 -92 75 -51 35 -151 106 -222
158 l-129 95 29 13 c16 7 101 42 189 79 332 136 712 362 1005 598 58 46 106
85 107 85 1 1 24 -13 52 -30z m-5277 -202 c18 -23 60 -74 94 -113 51 -59 61
-77 57 -99 -11 -56 -80 -69 -122 -23 -20 20 -71 164 -106 297 -9 36 -19 72
-22 80 -3 9 11 -10 30 -42 20 -32 51 -77 69 -100z m5931 -57 c26 -7 47 -16 47
-20 0 -4 -9 -37 -20 -73 -14 -46 -30 -73 -51 -91 -38 -32 -63 -33 -94 -1 -30
29 -32 70 -9 154 19 66 6 62 127 31z"/>
<path d="M4885 7803 c-58 -13 -225 -67 -225 -73 0 -3 48 -12 108 -19 59 -7
124 -15 145 -18 l37 -6 0 62 c0 66 -3 68 -65 54z"/>
<path d="M5240 7749 l0 -61 53 6 c253 31 261 32 237 46 -23 13 -242 70 -267
70 -21 0 -23 -4 -23 -61z"/>
<path d="M3980 7594 c-41 -7 -117 -13 -168 -13 l-92 -1 -108 -66 c-141 -87
-219 -142 -322 -228 -89 -75 -280 -261 -280 -274 0 -4 33 -22 73 -41 82 -38
410 -172 412 -168 1 1 30 54 65 117 132 240 269 434 419 590 94 98 96 101 84
99 -5 -1 -42 -7 -83 -15z"/>
<path d="M6211 7532 c169 -177 357 -443 470 -662 18 -36 34 -66 35 -68 5 -9
484 195 484 207 0 11 -222 227 -310 300 -92 77 -290 216 -357 250 -34 17 -60
21 -132 21 -49 0 -125 7 -168 15 -43 8 -82 15 -87 15 -5 0 25 -35 65 -78z"/>
<path d="M4259 7403 c-148 -154 -256 -297 -383 -506 -46 -75 -100 -186 -94
-192 8 -8 251 -57 408 -84 221 -37 413 -58 608 -67 l152 -7 0 430 0 430 -82 7
c-121 10 -321 42 -412 66 -44 11 -85 20 -91 20 -7 0 -54 -44 -106 -97z"/>
<path d="M5780 7484 c-74 -24 -256 -54 -402 -66 l-138 -12 0 -428 0 -428 53 0
c93 0 364 20 485 35 241 31 635 106 654 124 15 13 -164 305 -275 451 -119 155
-292 341 -316 339 -9 -1 -36 -7 -61 -15z"/>
<path d="M4377 4762 c-21 -23 -21 -52 -2 -116 21 -70 19 -174 -5 -239 -11 -29
-41 -77 -66 -107 -39 -46 -45 -58 -40 -84 4 -17 14 -37 23 -43 20 -16 67 -17
94 -3 34 19 118 151 139 218 38 122 17 306 -41 368 -27 29 -79 32 -102 6z"/>
<path d="M4630 4740 c-24 -24 -25 -54 -4 -111 11 -28 17 -77 18 -134 0 -81 -3
-97 -30 -155 -17 -36 -45 -82 -62 -103 -43 -54 -48 -74 -25 -106 14 -18 31
-27 55 -29 30 -3 40 3 82 48 54 57 100 148 117 229 24 116 -4 305 -54 359 -26
28 -70 29 -97 2z"/>
<path d="M3798 4726 c-135 -59 -166 -242 -58 -340 73 -66 141 -74 231 -28 196
99 125 385 -95 381 -28 0 -63 -6 -78 -13z"/>
<path d="M4897 4682 c-21 -23 -21 -38 -3 -126 27 -128 -4 -252 -91 -364 -49
-63 -52 -78 -22 -116 27 -34 76 -35 112 -2 86 80 157 253 157 384 0 103 -30
212 -64 234 -21 14 -73 8 -89 -10z"/>
<path d="M3020 4198 c0 -6 -3 -8 -7 -5 -12 12 -33 -15 -33 -42 0 -60 46 -86
204 -116 91 -17 232 -20 241 -4 4 6 14 8 23 4 21 -8 122 14 122 26 0 6 5 7 11
4 15 -10 61 4 54 15 -3 5 1 7 9 4 35 -13 48 72 16 101 -19 18 -23 17 -123 -5
-124 -29 -252 -29 -377 -1 -47 10 -88 17 -92 14 -5 -2 -8 1 -8 6 0 6 -9 11
-20 11 -11 0 -20 -5 -20 -12z"/>
<path d="M6505 3736 c-38 -18 -98 -43 -132 -57 -35 -13 -63 -26 -63 -29 1 -7
77 -63 138 -101 41 -25 55 -30 62 -20 9 16 72 232 68 236 -2 1 -34 -12 -73
-29z"/>
<path d="M3060 2956 c8 -7 51 -46 95 -87 242 -223 519 -398 760 -482 175 -60
173 -63 38 77 -67 69 -158 174 -203 234 l-81 108 -127 28 c-124 27 -353 90
-441 121 -53 18 -59 19 -41 1z"/>
<path d="M7060 2938 c-108 -37 -413 -116 -484 -124 l-54 -6 -83 -111 c-46 -60
-140 -169 -209 -240 -69 -71 -116 -127 -105 -124 11 4 56 17 101 31 249 74
463 196 704 400 161 136 238 206 225 205 -5 -1 -48 -14 -95 -31z"/>
<path d="M4171 2637 c229 -221 471 -349 729 -383 l50 -7 0 195 0 195 -107 6
c-297 18 -626 50 -733 72 -19 4 -5 -14 61 -78z"/>
<path d="M6010 2704 c-142 -26 -572 -64 -727 -64 l-43 0 0 -196 0 -197 53 7
c156 18 353 91 481 178 91 61 326 266 326 283 0 6 5 7 -90 -11z"/>
</g>
</svg>
