<svg version="1.1" id="Layer_1" xmlns="http://www.w3.org/2000/svg" xmlns:xlink="http://www.w3.org/1999/xlink" x="0px" y="0px"
	 width="100%" viewBox="0 0 1024 1024" enable-background="new 0 0 1024 1024" xml:space="preserve">
<path fill="#000000" opacity="1.000000" stroke="none" 
	d="
M566.000000,1025.000000 
	C378.833344,1025.000000 192.166672,1024.986938 5.500053,1025.093750 
	C1.750723,1025.095947 0.905801,1024.249146 0.906913,1020.500000 
	C1.007246,682.166687 1.007246,343.833344 0.906913,5.500028 
	C0.905801,1.750903 1.750902,0.905800 5.500028,0.906912 
	C343.833344,1.007255 682.166687,1.007255 1020.500000,0.906912 
	C1024.249146,0.905800 1025.094360,1.750902 1025.093262,5.500027 
	C1024.992920,343.833344 1024.992798,682.166687 1025.093140,1020.500000 
	C1025.094238,1024.249146 1024.249390,1025.096802 1020.499939,1025.094116 
	C869.166687,1024.983887 717.833313,1025.000000 566.000000,1025.000000 
z"/>
<path fill="#0088FF" opacity="1.000000" stroke="none" 
	d="
M880.043213,596.155518 
	C874.046265,628.276489 863.023743,658.193665 848.012634,686.642517 
	C836.826477,707.842468 823.828003,727.840698 809.009338,746.783020 
	C795.692993,763.804932 780.983215,779.457642 765.210999,794.023865 
	C743.818298,813.780701 720.164612,830.651794 694.625854,844.778625 
	C671.821167,857.393066 648.180725,868.106018 623.399780,876.242310 
	C605.293945,882.186951 586.782593,886.347900 567.919067,889.025696 
	C553.931763,891.011353 539.964233,892.717529 525.791809,893.276489 
	C517.864075,893.589233 509.856750,894.466797 502.001892,893.837097 
	C484.880554,892.464478 467.749481,891.289795 450.746765,888.238159 
	C432.624420,884.985413 414.764679,880.942200 397.414215,874.919373 
	C369.873413,865.359192 343.549744,853.228027 318.360870,838.357239 
	C301.033600,828.127625 284.946899,816.316528 268.935944,804.309143 
	C264.595764,801.054321 260.738098,797.121704 256.849915,793.305603 
	C248.711960,785.318481 240.612350,777.288208 232.658890,769.118042 
	C220.966827,757.107483 210.884354,743.769470 201.031494,730.248169 
	C190.180420,715.356934 180.486862,699.692932 172.242615,683.279907 
	C161.162659,661.221436 152.360931,638.219971 145.869644,614.300476 
	C141.332687,597.582458 138.727829,580.558655 136.142883,563.535156 
	C132.658539,540.588501 132.907318,517.315308 134.325027,494.317169 
	C136.251007,463.074188 142.298447,432.365479 152.965530,402.737762 
	C162.402390,376.527008 174.293137,351.564636 189.317978,328.040894 
	C200.257751,310.912994 212.271866,294.711975 225.812592,279.542053 
	C239.002274,264.765381 253.043945,250.999390 268.144196,238.148682 
	C294.703156,215.546295 324.415924,198.072296 355.694580,183.196976 
	C382.882507,170.267090 411.379395,160.774811 441.001007,155.177963 
	C454.644562,152.600082 468.429535,150.701981 482.367859,149.855789 
	C493.395233,149.186310 504.407227,147.526779 515.453735,148.092773 
	C532.658020,148.974304 549.806213,150.439041 566.915833,152.817963 
	C585.996521,155.470932 604.784973,159.353043 623.021362,165.239365 
	C641.662964,171.256485 659.744019,178.834488 677.400513,187.554031 
	C702.463745,199.931320 725.869995,214.781876 748.026428,231.671768 
	C754.494019,236.602020 760.436646,242.265915 766.320618,247.905716 
	C774.364197,255.615524 782.383179,263.381989 789.944153,271.557465 
	C803.171265,285.859680 815.260986,301.050690 826.219360,317.238647 
	C835.926697,331.578552 844.768555,346.375122 852.252258,361.899170 
	C860.629883,379.277557 867.461670,397.298065 873.265198,415.785645 
	C878.449158,432.299652 881.722961,449.145416 884.745483,466.053802 
	C886.061340,473.414948 886.438171,481.070679 887.264404,488.555328 
	C888.226440,497.271027 888.402954,506.053101 888.608032,514.692688 
	C888.840698,524.492615 888.791260,534.497742 887.372009,544.350891 
	C886.551575,550.046143 886.903137,555.840271 886.069946,561.579102 
	C884.408203,573.024841 883.034851,584.509216 880.043213,596.155518 
z"/>
<path fill="#000000" opacity="1.000000" stroke="none" 
	d="
M742.442871,528.111694 
	C736.628784,536.254456 729.346619,542.516418 722.346069,548.917297 
	C713.534912,556.973633 704.172424,564.472717 694.674622,571.723328 
	C671.683350,589.274780 646.850464,603.693298 620.358154,615.408081 
	C604.001099,622.640930 587.307800,628.824219 570.310425,634.265015 
	C565.841370,635.695557 561.283569,636.898926 556.698730,637.894409 
	C554.669189,638.335022 552.772156,637.858826 550.724792,636.468018 
	C541.279541,630.051758 532.815918,622.538391 524.945679,614.342896 
	C522.741577,612.047668 521.499573,611.839661 519.111938,614.252136 
	C510.415283,623.039368 510.309967,622.937805 518.286133,632.782288 
	C528.419189,645.288940 540.401489,655.730591 553.559204,664.958740 
	C565.429016,673.283813 578.035461,680.372009 590.444580,687.801819 
	C592.535767,689.053894 595.469910,688.804504 597.218750,691.419739 
	C585.268616,690.938660 573.670105,691.206909 562.274597,688.937561 
	C550.342834,686.561340 538.406067,684.202637 526.903625,680.057068 
	C510.504944,674.146729 494.390167,667.658264 480.047485,657.517090 
	C474.902405,653.879272 469.240509,655.799805 464.031708,656.307739 
	C458.009430,656.895081 451.932831,657.495178 445.919861,657.835327 
	C435.455017,658.427307 424.931549,658.093506 414.434448,657.980408 
	C393.061920,657.750122 372.065247,654.594360 351.297241,649.684570 
	C336.113708,646.094971 321.297180,641.439270 307.035828,635.057068 
	C291.862152,628.266602 277.696350,619.828613 264.822174,609.299561 
	C251.096985,598.074646 239.290512,585.142639 230.276657,569.784302 
	C229.288422,568.100525 228.195267,566.468689 227.330872,564.723572 
	C221.257309,552.461182 222.128143,555.411377 231.158340,548.600952 
	C251.005249,533.632690 273.163025,522.849731 296.940308,515.580933 
	C311.408478,511.157959 326.187714,508.038055 341.194611,505.939301 
	C351.446716,504.505524 361.745544,503.771851 372.029877,502.781250 
	C383.333496,501.692474 394.615112,501.672089 405.829102,502.185577 
	C422.400330,502.944336 438.987152,503.629486 455.515747,505.767914 
	C469.623077,507.593079 483.750916,509.404022 497.887451,511.073883 
	C512.154785,512.759216 526.310547,515.500122 540.603699,516.821106 
	C552.541443,517.924377 564.432678,519.498352 576.437012,520.152161 
	C592.295166,521.015808 608.132812,522.042969 624.021729,522.002930 
	C631.189575,521.984863 631.302429,522.010620 631.972290,515.111206 
	C634.979553,484.135468 647.700989,457.389130 667.002258,433.364014 
	C671.663269,427.562225 676.992188,422.566010 682.859070,417.506104 
	C683.048523,422.166199 681.328613,426.390198 680.775269,430.731964 
	C678.072876,451.935394 681.032837,472.135651 689.890503,491.530060 
	C690.363892,492.566620 690.764526,493.638275 691.272888,494.656708 
	C698.741333,509.618713 698.671692,509.292450 715.055298,505.626953 
	C723.629456,503.708618 732.492981,502.982605 741.264771,502.108612 
	C743.960693,501.839996 745.363892,501.283142 746.038818,498.502563 
	C749.552429,484.027069 755.500793,470.540985 763.059021,457.741547 
	C763.555542,456.900726 764.062622,455.986725 765.335205,456.178772 
	C775.743469,503.709381 795.564209,546.118530 832.003845,579.394348 
	C829.720581,579.839783 822.505066,578.786804 817.930298,577.493896 
	C796.464111,571.427551 777.986389,560.510254 763.241455,543.653870 
	C759.921997,539.859009 756.411377,535.913757 754.348755,531.414307 
	C751.501526,525.203186 747.469238,526.146118 742.442871,528.111694 
z"/>
<path fill="#000000" opacity="1.000000" stroke="none" 
	d="
M616.217407,448.571106 
	C609.262878,462.166443 603.160706,475.563660 598.956848,489.760284 
	C598.304504,491.963196 596.401978,491.048706 595.210999,490.919708 
	C589.531128,490.304474 583.884033,489.391479 578.219727,488.625763 
	C569.152405,487.400024 560.082458,486.193329 551.010315,485.003693 
	C541.124878,483.707367 531.243958,482.370911 521.345337,481.182800 
	C514.344055,480.342438 507.328735,479.403931 500.295715,479.133881 
	C496.806732,478.999878 495.892456,478.175171 495.916382,474.680481 
	C496.077148,451.181671 495.904388,427.680481 496.093109,404.182098 
	C496.124969,400.213898 495.380035,399.016296 491.057343,398.846710 
	C472.846649,398.132324 454.711273,396.749176 436.585144,394.293121 
	C415.560364,391.444336 394.759399,387.789825 374.120544,383.008881 
	C367.228180,381.412323 366.977692,381.355164 364.519836,388.068756 
	C357.704987,406.683441 352.229675,425.684509 349.001984,445.278534 
	C347.597595,453.803619 346.260040,462.341248 345.043793,470.894714 
	C344.761383,472.880859 344.067139,473.719727 342.029846,474.046265 
	C334.642273,475.230347 327.286530,476.615204 319.924072,477.953461 
	C317.287903,478.432617 316.792175,477.064880 317.000702,474.845886 
	C319.797333,445.081635 325.770813,415.975250 335.155518,387.587708 
	C336.576691,383.288940 337.393555,378.782745 339.614746,374.738373 
	C340.628479,372.892670 339.766602,371.617249 337.773346,371.020355 
	C321.250458,366.072479 305.538574,359.069611 289.916748,351.882507 
	C285.956665,350.060577 282.333160,347.478516 278.640991,345.111572 
	C275.556976,343.134552 275.160004,340.368134 277.234924,337.484344 
	C281.234467,331.925659 285.261902,326.376495 289.527283,321.022156 
	C295.637604,313.351837 302.673767,306.510071 309.780487,299.792358 
	C328.382111,282.209045 348.597839,266.806854 371.070160,254.369614 
	C389.760559,244.025467 409.056030,235.184982 429.469727,228.865952 
	C445.478363,223.910522 461.745544,220.286728 478.368988,217.791794 
	C494.417206,215.383179 510.471466,215.561096 526.460632,216.208374 
	C550.641541,217.187241 574.298157,221.952301 597.195557,229.992462 
	C618.551697,237.491425 639.030090,246.754288 658.445679,258.584595 
	C674.144287,268.150024 688.814636,278.871368 702.585510,290.992188 
	C717.875366,304.450073 732.018921,318.928741 743.933655,335.484650 
	C747.950073,341.065674 747.195557,344.819763 740.917664,347.935730 
	C724.661194,356.004486 708.082031,363.339600 690.897339,369.305145 
	C689.186890,369.898895 682.920593,368.939728 685.789734,374.973602 
	C686.315125,376.078644 684.482056,377.167908 683.415649,377.870941 
	C677.167847,381.989807 670.690613,385.760010 664.893066,390.550323 
	C662.741882,392.327820 660.766846,392.264374 660.502075,388.926483 
	C660.309631,386.500580 658.291321,385.056366 657.781433,382.728149 
	C657.309692,380.574219 655.128845,380.738953 653.212463,381.355530 
	C634.869263,387.256958 615.969116,390.456879 596.928894,393.027313 
	C579.515259,395.378174 562.132324,397.726837 544.506287,398.222687 
	C539.111145,398.374451 533.646545,399.022858 528.208862,398.929474 
	C525.427124,398.881714 524.945007,399.956329 524.955139,402.423309 
	C525.036865,422.256226 525.040588,442.089783 524.958557,461.922699 
	C524.946106,464.922974 525.989502,465.976013 529.027771,466.057159 
	C545.918091,466.508423 562.515381,469.177887 578.974487,472.895599 
	C582.513184,473.694885 585.520264,473.198456 588.601501,470.154175 
	C596.630920,462.221161 604.879578,454.415771 615.067993,448.511597 
	C615.677124,448.219421 616.014343,448.145172 616.217407,448.571106 
z"/>
<path fill="#000000" opacity="1.000000" stroke="none" 
	d="
M315.269104,750.767700 
	C291.274628,729.341919 272.335999,704.219849 255.171158,677.649231 
	C251.821182,672.463562 248.750092,667.097290 245.386139,661.921082 
	C243.243134,658.623535 244.000046,655.874939 246.837006,653.792297 
	C249.764908,651.642944 252.282227,653.643127 254.118927,655.717651 
	C258.241333,660.373657 261.872986,665.469666 266.066132,670.055908 
	C271.558258,676.062927 276.767792,682.634155 283.289703,687.297119 
	C288.510376,691.029785 295.518951,692.224060 301.654083,694.792419 
	C314.363922,700.113403 327.428345,704.499756 340.667725,708.355774 
	C342.433502,708.870117 344.932281,709.961914 345.725464,708.894226 
	C346.904388,707.307251 345.115814,705.324097 344.129456,703.610291 
	C340.070953,696.558594 336.039581,689.489258 332.172668,682.332214 
	C331.749451,681.548889 330.245972,680.486328 331.474060,679.350464 
	C332.240417,678.641724 333.237854,679.348267 334.197571,679.568176 
	C343.692871,681.743835 353.016357,684.755371 362.706451,685.973145 
	C368.066864,686.646790 368.950317,691.449768 370.747406,694.770081 
	C374.623474,701.931335 379.399963,708.639343 382.740631,715.975769 
	C385.560211,722.167786 390.785583,721.039062 395.123047,721.832092 
	C408.433990,724.265808 421.852295,726.174500 435.280212,727.883911 
	C443.753601,728.962646 452.313263,729.403381 460.844452,729.978455 
	C471.095306,730.669312 481.298157,731.978394 491.600037,732.084778 
	C494.978577,732.119690 496.220245,731.414001 496.090424,727.768433 
	C495.800690,719.635925 495.999847,711.486023 495.999847,703.054199 
	C505.302795,706.485168 514.233154,709.779114 523.163940,713.072144 
	C524.908813,713.715515 525.026672,715.139832 525.011902,716.711975 
	C524.972839,720.877563 525.040100,725.044373 524.983276,729.209534 
	C524.960144,730.908386 525.143372,732.026306 527.338318,732.031372 
	C537.088440,732.054016 546.777832,731.144531 556.462036,730.227112 
	C561.705200,729.730286 566.962524,729.689026 572.221375,729.178040 
	C592.079712,727.248901 611.806396,724.552429 631.431641,721.011841 
	C632.959534,720.736145 633.549622,719.887573 634.181213,718.598145 
	C638.400635,709.983765 642.675781,701.395325 647.061584,692.864685 
	C648.253052,690.547424 648.121704,689.461975 645.688110,687.778259 
	C632.429077,678.604797 619.401672,669.096558 606.291687,659.707458 
	C605.476685,659.123779 604.636597,658.575134 603.431824,657.753723 
	C615.302917,652.689514 626.273743,647.912720 637.321289,643.320312 
	C652.068420,637.190247 665.866089,629.274658 679.452942,620.990051 
	C692.656250,612.939514 705.522949,604.358765 717.850403,595.005920 
	C723.576355,590.661682 729.202698,586.182373 734.781677,581.650452 
	C736.161377,580.529663 736.797180,579.807251 738.834900,581.146484 
	C747.656372,586.944153 747.802979,586.862549 739.772034,593.699890 
	C726.084351,605.353210 711.157837,615.326172 695.935059,624.780273 
	C692.607788,626.846741 692.658020,629.595703 692.225220,631.933350 
	C687.151367,659.335999 678.180786,685.525330 667.883423,712.036560 
	C677.657166,709.228088 687.230225,707.047180 696.383240,703.712952 
	C709.931458,698.777649 723.592224,694.089539 736.795471,688.204651 
	C738.543518,687.425476 739.855042,686.468567 741.194458,685.308838 
	C751.119202,676.715881 758.283386,665.645874 767.303772,656.245422 
	C769.034424,654.441895 770.656189,652.180054 773.911194,653.934998 
	C778.156738,656.224304 777.678711,659.390259 775.689880,662.635803 
	C769.066772,673.443848 762.605896,684.372498 755.493774,694.855164 
	C741.493469,715.490601 725.654724,734.708435 707.021057,751.300293 
	C685.010559,770.898987 660.886963,787.569580 634.014099,799.992432 
	C611.229858,810.525146 587.460876,818.182434 562.838684,822.787292 
	C550.149170,825.160461 537.191223,826.161865 524.274963,827.310364 
	C513.115845,828.302612 502.109100,827.882202 491.188446,826.800537 
	C472.247467,824.924438 453.447540,821.913635 435.041687,816.615112 
	C404.553741,807.838379 376.039825,795.043091 349.672028,777.305176 
	C337.702271,769.252991 326.552124,760.240601 315.269104,750.767700 
z"/>
<path fill="#000000" opacity="1.000000" stroke="none" 
	d="
M223.709167,453.627075 
	C222.003281,462.830322 220.460846,471.645721 219.056427,480.483032 
	C218.654633,483.011444 218.799530,484.564575 222.444382,485.427063 
	C234.040390,488.171051 245.530304,491.488434 256.977234,496.184357 
	C244.823090,501.865509 233.259659,507.737671 222.266602,514.789185 
	C220.023773,516.227905 217.934448,517.149292 215.700974,519.125122 
	C208.300247,525.672180 200.947495,532.164124 194.652039,539.808411 
	C194.367584,540.153748 193.883591,540.334839 193.356140,540.682251 
	C191.396500,535.591248 191.317154,530.289978 191.161377,525.232605 
	C190.753494,511.990692 190.368408,498.677887 192.067383,485.495941 
	C194.331970,467.925476 197.420044,450.514496 202.690414,433.513733 
	C205.766113,423.592377 209.282303,413.857056 213.373978,404.348785 
	C216.730606,396.548645 219.478607,394.459930 225.759460,394.921692 
	C231.341660,395.332092 236.195206,400.945404 234.868256,406.358490 
	C231.782501,418.946289 228.541824,431.496185 225.471329,444.087646 
	C224.739609,447.088196 224.429230,450.191498 223.709167,453.627075 
z"/>
<path fill="#000000" opacity="1.000000" stroke="none" 
	d="
M824.046021,452.890808 
	C825.384949,459.848175 827.129456,466.326111 827.905151,472.918060 
	C829.851440,489.458496 831.646973,506.032990 831.003967,522.745300 
	C830.972046,523.573792 830.999756,524.404480 830.166199,525.682007 
	C827.198425,520.672974 823.981812,515.793091 821.305725,510.632812 
	C809.225891,487.339508 799.874817,462.981689 794.251526,437.333374 
	C791.874268,426.490814 790.040100,415.489502 789.941711,404.282471 
	C789.899780,399.505646 791.657898,396.237366 796.299316,395.081085 
	C800.964905,393.918823 804.895203,396.226593 806.946716,400.859222 
	C814.317627,417.503967 820.320679,434.601196 824.046021,452.890808 
z"/>
<path fill="#000000" opacity="1.000000" stroke="none" 
	d="
M754.964355,382.915527 
	C748.225952,397.923981 743.722961,413.317047 739.060730,428.645538 
	C738.111389,431.766785 737.173279,434.698151 735.274048,437.486908 
	C729.027893,446.658325 724.790100,456.789429 721.705383,467.449768 
	C721.348816,468.681885 721.743774,471.430908 718.695862,471.035919 
	C716.143555,470.705170 716.411316,468.938568 715.887695,467.155304 
	C709.192871,444.357422 711.523926,421.765594 717.389526,399.290405 
	C719.263916,392.108215 721.795837,385.099121 723.914978,377.977539 
	C724.202515,377.011414 724.171936,375.759949 725.184814,375.508179 
	C726.489868,375.183716 726.962891,376.645905 727.753479,377.389343 
	C727.864502,377.493774 727.875183,377.697876 727.972839,377.824677 
	C730.516602,381.128601 732.587402,386.363617 735.757690,387.147247 
	C738.545166,387.836243 742.586731,383.577301 746.033020,381.436859 
	C748.928467,379.638550 751.809204,377.808624 754.603271,375.859161 
	C755.655090,375.125305 756.685791,374.482117 757.661804,375.476562 
	C758.598877,376.431305 757.204102,377.207367 756.933716,378.071869 
	C756.453552,379.607391 755.660950,381.045197 754.964355,382.915527 
z"/>
<path fill="#000000" opacity="1.000000" stroke="none" 
	d="
M207.289520,593.703247 
	C213.369141,602.639587 219.814514,610.825256 226.958145,618.450989 
	C230.139618,621.847168 230.320236,625.552612 227.336182,628.150146 
	C224.073807,630.989990 219.834991,630.379028 216.881683,626.565918 
	C212.382645,620.757202 211.692200,613.412048 209.142746,606.821838 
	C207.471985,602.502991 206.902603,597.765442 205.695023,593.254211 
	C205.431503,592.269775 205.724442,592.054626 206.433823,592.193542 
	C206.714523,592.248535 206.861038,592.988525 207.289520,593.703247 
z"/>
<path fill="#000000" opacity="1.000000" stroke="none" 
	d="
M810.964478,615.798096 
	C809.023865,620.069275 808.844177,624.813293 804.903137,627.648438 
	C802.745239,629.200745 800.799866,630.817627 797.846680,629.429138 
	C794.908813,628.047791 793.335999,625.899719 792.989502,622.696594 
	C792.407837,617.319885 794.874023,612.577759 795.963379,607.546143 
	C796.367920,605.677551 797.209290,606.984497 797.937073,606.915527 
	C801.169250,606.609253 803.852173,608.699646 806.895386,608.944397 
	C811.332275,609.301270 812.764038,611.243164 810.964478,615.798096 
z"/>
<path fill="#000000" opacity="1.000000" stroke="none" 
	d="
M615.524170,448.489685 
	C615.795776,447.978088 615.965698,447.013397 616.751404,447.533539 
	C616.923950,447.647766 616.678955,448.392700 616.354797,448.959290 
	C615.958435,448.942810 615.833496,448.814209 615.524170,448.489685 
z"/>
<path fill="#0088FF" opacity="1.000000" stroke="none" 
	d="
M379.394226,589.890625 
	C369.009888,584.037292 365.147583,571.202454 370.919769,561.493713 
	C377.206238,550.919922 388.002167,547.756653 399.302582,553.339783 
	C407.341827,557.311707 412.782440,569.175720 408.297272,578.390625 
	C402.572205,590.153015 391.690460,594.929016 379.394226,589.890625 
z"/>
<path fill="#0088FF" opacity="1.000000" stroke="none" 
	d="
M474.797943,552.309448 
	C483.101654,571.156738 482.214996,589.173523 470.811157,606.015320 
	C468.085358,610.040955 465.297821,615.397217 458.769684,615.007812 
	C454.025238,614.724731 450.951050,609.814941 453.122040,605.664490 
	C455.461212,601.192444 459.223419,597.709290 461.550140,593.122498 
	C466.653076,583.062866 466.953888,572.879944 463.701813,562.343323 
	C463.414368,561.411926 463.237701,560.435364 462.854645,559.546570 
	C461.253021,555.830444 461.333801,552.355408 465.026550,550.062195 
	C468.600250,547.843018 471.934998,548.598633 474.797943,552.309448 
z"/>
<path fill="#0088FF" opacity="1.000000" stroke="none" 
	d="
M491.985168,616.083740 
	C485.800171,621.121094 482.458588,621.404236 479.136047,617.645081 
	C476.425598,614.578430 476.146698,611.462158 479.063293,608.496887 
	C487.489166,599.930481 491.276550,589.319519 491.764862,577.677429 
	C491.947601,573.321777 490.680603,568.726013 489.288940,564.335876 
	C488.428711,561.622192 488.301208,558.528198 491.202789,556.209229 
	C493.666138,554.240601 496.348267,554.651367 498.715149,555.409607 
	C502.181061,556.519836 503.039459,560.253296 503.850769,563.173218 
	C509.281311,582.717957 504.940491,600.209717 491.985168,616.083740 
z"/>
<path fill="#0088FF" opacity="1.000000" stroke="none" 
	d="
M442.711731,604.687378 
	C440.550415,607.028503 438.624176,609.019165 435.463196,609.020935 
	C432.601379,609.022583 429.571136,609.089539 428.138611,606.155579 
	C426.541931,602.885437 426.552185,599.601135 429.628174,596.825684 
	C433.565826,593.272827 436.322632,589.001099 438.146942,583.903320 
	C441.044556,575.806213 440.544128,567.859802 438.394501,559.805969 
	C438.185364,559.022461 438.034241,558.221741 437.791809,557.449158 
	C436.130463,552.155457 437.086090,548.614441 440.582611,547.183044 
	C443.891174,545.828613 449.188782,547.825012 450.886902,551.865295 
	C457.104279,566.658325 457.108521,581.334717 448.921661,595.516541 
	C447.142303,598.598755 444.939667,601.436584 442.711731,604.687378 
z"/>
<path fill="#0088FF" opacity="1.000000" stroke="none" 
	d="
M321.175354,621.994873 
	C315.566528,620.652832 310.382812,619.386597 305.247803,617.946533 
	C302.659058,617.220642 300.470459,615.820190 299.540100,613.055359 
	C298.789032,610.823364 298.051422,608.204163 300.060303,606.657043 
	C302.000153,605.163147 303.959900,603.321716 307.341827,604.564880 
	C316.708984,608.008057 326.660278,609.417480 336.514526,609.764587 
	C344.229279,610.036377 352.062195,608.246643 359.506348,605.877563 
	C363.773743,604.519470 367.092346,604.724365 368.877441,609.039490 
	C370.430481,612.793701 367.552490,617.858276 362.721649,618.413269 
	C358.990753,618.841980 355.837708,620.611694 352.205597,621.082214 
	C342.024139,622.401184 331.897278,624.279114 321.175354,621.994873 
z"/>
<path fill="#0088FF" opacity="1.000000" stroke="none" 
	d="
M628.996460,358.000183 
	C617.962769,360.530975 607.229858,362.364868 596.461304,363.984070 
	C587.432556,365.341644 578.385864,366.581940 569.340820,367.828278 
	C565.441040,368.365723 561.396606,368.725861 557.589600,368.740906 
	C547.969727,368.778931 538.454224,370.372894 528.830872,370.094208 
	C525.810547,370.006714 524.910828,369.334534 524.926331,366.211121 
	C525.056213,340.077301 525.053955,313.942291 524.928711,287.808411 
	C524.913940,284.723755 525.761108,284.043182 528.806580,283.904999 
	C547.101013,283.074829 565.229309,280.873199 582.808716,275.502625 
	C585.629822,274.640778 587.090942,275.528687 588.818970,277.274689 
	C599.582947,288.150757 609.492126,299.702820 618.710632,311.962250 
	C627.941162,324.237671 635.718079,337.317596 643.270691,350.602295 
	C644.821167,353.329590 645.350220,354.749603 641.202698,355.158722 
	C637.223206,355.551270 633.348328,357.003815 628.996460,358.000183 
z"/>
<path fill="#0088FF" opacity="1.000000" stroke="none" 
	d="
M446.061554,277.001465 
	C455.288147,279.449951 464.290985,280.848907 473.331116,281.965424 
	C480.161926,282.809052 487.022949,283.455261 493.887543,283.955536 
	C496.701324,284.160583 495.967102,286.024078 495.973969,287.500427 
	C496.022156,297.826630 495.999939,308.153107 496.000000,318.479523 
	C496.000061,334.302246 495.906219,350.125946 496.076355,365.946838 
	C496.111694,369.233673 495.183807,370.168793 491.924377,370.063354 
	C475.314758,369.526001 458.800934,368.266357 442.288635,366.166473 
	C423.035767,363.718048 404.019257,360.245483 385.101501,356.043976 
	C383.070496,355.592896 381.267487,354.454254 378.631653,354.966187 
	C385.971832,337.089050 396.491028,322.040894 407.358551,307.262726 
	C414.385803,297.706726 422.573883,289.103638 430.734253,280.466278 
	C435.386932,275.541595 439.616699,273.696594 446.061554,277.001465 
z"/>
<path fill="#0088FF" opacity="1.000000" stroke="none" 
	d="
M633.719482,285.206665 
	C628.432312,277.342590 621.631165,271.294434 614.407104,263.774597 
	C620.378601,264.815430 625.147705,265.657593 629.921692,266.471619 
	C631.210754,266.691467 632.559082,267.133881 633.804199,266.952362 
	C646.661438,265.078491 657.239380,269.857056 667.601501,277.043945 
	C686.506348,290.155884 703.500183,305.334167 719.408508,321.846313 
	C721.042786,323.542572 721.522217,324.410736 718.928345,325.617035 
	C704.518311,332.318695 689.890747,338.485962 675.014465,344.076141 
	C673.325012,344.710999 672.949341,345.136230 671.744446,342.824493 
	C661.887573,323.913818 650.356018,306.023102 637.468994,289.021790 
	C636.472534,287.707123 635.147400,286.641510 633.719482,285.206665 
z"/>
<path fill="#0088FF" opacity="1.000000" stroke="none" 
	d="
M349.006897,281.998596 
	C356.918091,277.140289 364.474792,272.356567 372.008850,267.537415 
	C373.565277,266.541809 375.252838,266.978546 376.847229,267.040771 
	C387.219482,267.445496 397.443909,266.324097 407.717834,264.109344 
	C408.195587,266.646271 405.766541,266.556519 404.822418,267.515533 
	C394.418701,278.083374 384.722534,289.246765 376.259949,301.420471 
	C367.160126,314.510895 359.179535,328.289398 351.819672,342.432709 
	C351.270325,343.488464 351.317200,345.531982 348.464966,344.311798 
	C333.721802,338.004578 318.586517,332.671448 304.251831,325.318573 
	C300.276947,323.279694 302.902710,322.814453 303.941742,321.596375 
	C316.978485,306.313263 332.384491,293.702820 349.006897,281.998596 
z"/>
<path fill="#0088FF" opacity="1.000000" stroke="none" 
	d="
M528.767334,244.004898 
	C537.757935,246.352798 546.511536,248.013412 555.028625,251.453781 
	C552.243164,254.375977 548.760193,252.945892 545.841492,253.704849 
	C540.038086,255.213913 533.868713,255.321213 527.847229,255.977264 
	C527.194824,256.048340 526.109131,256.163269 525.920044,255.844833 
	C524.028381,252.658813 525.263794,249.135986 525.061890,245.760468 
	C524.912292,243.259338 527.031555,244.231461 528.767334,244.004898 
z"/>
<path fill="#0088FF" opacity="1.000000" stroke="none" 
	d="
M494.968933,244.087646 
	C496.685028,247.356705 495.692017,250.692383 495.988861,253.953064 
	C496.163330,255.869904 494.959473,256.177338 493.479767,255.984451 
	C484.703949,254.840485 475.932159,253.665695 467.093719,252.058167 
	C475.991364,248.416809 484.940521,245.168182 494.968933,244.087646 
z"/>
<path fill="#0088FF" opacity="1.000000" stroke="none" 
	d="
M593.254761,770.247314 
	C576.158936,785.725159 556.747498,795.644958 534.159973,799.002502 
	C525.001282,800.363892 524.999878,800.355286 525.000061,791.291321 
	C525.000244,782.296692 525.093994,773.300537 524.943298,764.308472 
	C524.899048,761.668884 525.721436,761.027344 528.316162,760.927490 
	C541.509033,760.419861 554.732300,760.096680 567.868591,758.882874 
	C582.126465,757.565430 596.421692,756.239990 610.830872,753.561401 
	C604.804504,758.823364 600.119812,765.384888 593.254761,770.247314 
z"/>
<path fill="#0088FF" opacity="1.000000" stroke="none" 
	d="
M411.571106,753.782593 
	C422.689789,754.646240 433.178619,756.407104 443.712952,757.820740 
	C448.434814,758.454407 453.222290,758.971252 457.974823,758.931152 
	C469.889130,758.830811 481.626709,761.505554 493.546631,760.983582 
	C495.612885,760.893127 496.030396,761.864380 496.022278,763.676575 
	C495.972290,774.839783 495.891357,786.005066 496.064484,797.165833 
	C496.114990,800.420227 494.193237,800.342285 492.249542,799.947998 
	C481.605499,797.788818 470.881409,795.949524 460.854218,791.430298 
	C441.857574,782.868713 426.034668,770.055847 411.513184,754.910400 
	C411.219421,754.322876 411.145172,753.985657 411.571106,753.782593 
z"/>
<path fill="#0088FF" opacity="1.000000" stroke="none" 
	d="
M613.179443,790.829346 
	C624.284668,779.335205 636.223022,768.951965 644.288696,755.717163 
	C650.567688,745.413940 659.461426,743.446167 669.782349,741.430603 
	C684.854065,738.487183 699.577759,733.929199 714.535645,728.954773 
	C715.270630,728.831421 715.615295,728.743530 715.820557,729.170654 
	C686.331665,757.117920 655.378540,781.914185 614.474121,791.045166 
	C613.729370,791.168579 613.384705,791.256470 613.179443,790.829346 
z"/>
<path fill="#0088FF" opacity="1.000000" stroke="none" 
	d="
M406.428894,790.217407 
	C397.037048,788.743286 388.762512,785.345703 380.639740,781.807739 
	C359.937775,772.790771 341.928467,759.577332 324.585419,745.282898 
	C318.738159,740.463379 314.059723,734.411316 307.517944,729.914551 
	C307.219421,729.322876 307.145172,728.985657 307.571106,728.782593 
	C318.150513,731.838867 328.197479,734.878662 338.319794,737.642517 
	C345.333954,739.557739 352.373871,741.758789 359.546783,742.599670 
	C366.025513,743.359131 369.771515,746.337280 373.316986,751.577942 
	C382.657104,765.383850 394.352844,777.237976 406.486847,789.089600 
	C406.780579,789.677124 406.854828,790.014343 406.428894,790.217407 
z"/>
<path fill="#0088FF" opacity="1.000000" stroke="none" 
	d="
M647.732178,671.302185 
	C641.942749,667.934998 636.780518,664.338806 631.781494,659.873962 
	C640.864197,656.000244 649.730408,652.218872 659.177673,648.189697 
	C656.830811,656.143494 655.122986,663.936951 652.186768,671.404358 
	C650.792603,674.950012 649.394104,671.082031 647.732178,671.302185 
z"/>
<path fill="#0088FF" opacity="1.000000" stroke="none" 
	d="
M307.489685,729.475830 
	C306.978088,729.204224 306.013336,729.034241 306.533508,728.248596 
	C306.647766,728.075989 307.392700,728.320984 307.959290,728.645142 
	C307.942810,729.041565 307.814209,729.166504 307.489685,729.475830 
z"/>
<path fill="#0088FF" opacity="1.000000" stroke="none" 
	d="
M715.113464,729.112183 
	C715.260620,728.093811 715.804199,727.780334 716.593933,728.321960 
	C716.639160,728.353027 716.288025,728.962219 715.901245,729.494019 
	C715.554443,729.558777 715.427734,729.431946 715.113464,729.112183 
z"/>
<path fill="#0088FF" opacity="1.000000" stroke="none" 
	d="
M411.489685,754.475830 
	C410.978088,754.204224 410.013397,754.034302 410.533569,753.248596 
	C410.647827,753.076050 411.392700,753.320984 411.959290,753.645142 
	C411.942810,754.041565 411.814209,754.166504 411.489685,754.475830 
z"/>
<path fill="#0088FF" opacity="1.000000" stroke="none" 
	d="
M406.510315,789.524170 
	C407.021912,789.795776 407.986603,789.965698 407.466431,790.751404 
	C407.352173,790.923950 406.607300,790.679016 406.040710,790.354858 
	C406.057190,789.958435 406.185791,789.833496 406.510315,789.524170 
z"/>
<path fill="#0088FF" opacity="1.000000" stroke="none" 
	d="
M613.886536,790.887817 
	C613.739380,791.906189 613.195801,792.219666 612.406128,791.677979 
	C612.360779,791.647034 612.712036,791.037842 613.098755,790.505981 
	C613.445557,790.441223 613.572266,790.568054 613.886536,790.887817 
z"/>
</svg>